<svg width="171" height="34" fill="none" xmlns="http://www.w3.org/2000/svg"><path d="M55.212 14.658V2.345h3.254V6.92h4.75V2.345h3.253v12.313h-3.254v-4.75h-4.749v4.75h-3.254zM68.396 3.049c0-.422.158-.774.475-1.056.316-.293.715-.44 1.196-.44.48 0 .88.147 1.196.44.317.282.475.634.475 1.056 0 .41-.158.762-.475 1.055-.317.293-.715.44-1.196.44-.48 0-.88-.147-1.196-.44a1.388 1.388 0 01-.475-1.055zm.176 11.609V5.51h2.99v9.147h-2.99zM74.24 13.268c-.785-.867-1.178-1.987-1.178-3.36 0-1.371.393-2.491 1.178-3.359.786-.868 1.742-1.301 2.868-1.301.809 0 1.506.234 2.093.703.27.211.48.446.633.704h.176V5.51H83V18h-8.707v-2.375h5.717v-2.374h-.176c-.164.258-.375.48-.633.668-.575.434-1.273.651-2.093.651-1.126 0-2.082-.434-2.868-1.302zm2.428-4.907c-.352.375-.528.891-.528 1.548 0 .656.176 1.172.528 1.548.352.375.82.563 1.407.563.586 0 1.055-.188 1.407-.563.352-.376.528-.892.528-1.548 0-.657-.176-1.173-.528-1.548-.352-.375-.82-.563-1.407-.563-.586 0-1.055.188-1.407.563zM84.75 14.658V2.345h2.99v4.398h.177a2.72 2.72 0 01.633-.74 3.148 3.148 0 012.093-.755c1.08 0 1.918.328 2.516.985.61.644.914 1.577.914 2.796v5.629h-2.99V9.469c0-.528-.14-.938-.422-1.231-.282-.293-.669-.44-1.161-.44a1.64 1.64 0 00-1.266.563c-.329.363-.493.85-.493 1.46v4.837h-2.99zM100.674 18V5.511h2.99v1.232h.176c.164-.27.387-.516.669-.74.645-.503 1.331-.755 2.058-.755 1.125 0 2.081.445 2.867 1.336.785.88 1.178 2.047 1.178 3.5 0 1.455-.393 2.627-1.178 3.519-.786.879-1.742 1.319-2.867 1.319-.739 0-1.425-.247-2.058-.739a2.694 2.694 0 01-.669-.756h-.176V18h-2.99zm3.518-9.604c-.352.399-.528.962-.528 1.689 0 .727.176 1.29.528 1.688.352.399.821.598 1.407.598.586 0 1.056-.199 1.407-.598.352-.398.528-.961.528-1.688s-.176-1.29-.528-1.689c-.351-.399-.821-.598-1.407-.598-.586 0-1.055.2-1.407.598zM112.838 13.603c-.786-.892-1.179-2.064-1.179-3.518 0-1.454.393-2.621 1.179-3.5.786-.892 1.741-1.337 2.867-1.337.727 0 1.413.252 2.058.756.27.223.492.469.668.739h.176V5.51h2.99v9.147h-2.99v-1.231h-.176a2.705 2.705 0 01-.668.756c-.633.492-1.319.739-2.058.739-1.126 0-2.081-.44-2.867-1.32zm2.427-5.207c-.352.399-.527.962-.527 1.689 0 .727.175 1.29.527 1.688.352.399.821.598 1.407.598.587 0 1.056-.199 1.408-.598.351-.398.527-.961.527-1.688s-.176-1.29-.527-1.689c-.352-.399-.821-.598-1.408-.598-.586 0-1.055.2-1.407.598zM122.82 11.668h2.991c.047.176.146.34.299.492.316.317.774.475 1.372.475.821 0 1.231-.205 1.231-.615 0-.188-.117-.335-.352-.44-.234-.117-.586-.235-1.055-.352a24.302 24.302 0 00-.757-.176 12.99 12.99 0 01-.738-.193 5.928 5.928 0 01-.809-.3 38.26 38.26 0 00-.651-.386c-.27-.176-.469-.352-.598-.528a4.066 4.066 0 01-.334-.686 2.524 2.524 0 01-.159-.897c0-.774.346-1.437 1.038-1.988.692-.55 1.665-.826 2.92-.826 1.571 0 2.814.515 3.729 1.547.363.446.615.956.756 1.53h-2.902a1.407 1.407 0 00-.246-.439c-.27-.293-.657-.44-1.161-.44-.704 0-1.056.205-1.056.616 0 .2.118.352.352.457.235.106.592.205 1.073.3 1.208.28 2.023.527 2.445.738 1.055.516 1.583 1.307 1.583 2.375 0 .844-.375 1.553-1.126 2.128-.738.574-1.8.862-3.183.862-1.701 0-2.996-.54-3.888-1.619a3.598 3.598 0 01-.774-1.635zM132.577 11.668h2.99c.047.176.147.34.299.492.317.317.774.475 1.372.475.821 0 1.232-.205 1.232-.615 0-.188-.118-.335-.352-.44-.235-.117-.586-.235-1.055-.352-.387-.094-.64-.152-.757-.176a13.174 13.174 0 01-.739-.193 5.98 5.98 0 01-.809-.3 31.633 31.633 0 00-.651-.386c-.269-.176-.469-.352-.598-.528a4.224 4.224 0 01-.334-.686 2.546 2.546 0 01-.158-.897c0-.774.346-1.437 1.038-1.988.692-.55 1.665-.826 2.92-.826 1.571 0 2.814.515 3.729 1.547.363.446.615.956.756 1.53h-2.902a1.408 1.408 0 00-.247-.439c-.269-.293-.656-.44-1.161-.44-.703 0-1.055.205-1.055.616 0 .2.117.352.352.457.234.106.592.205 1.073.3 1.208.28 2.023.527 2.445.738 1.055.516 1.583 1.307 1.583 2.375 0 .844-.375 1.553-1.126 2.128-.739.574-1.8.862-3.184.862-1.7 0-2.996-.54-3.887-1.619a3.578 3.578 0 01-.774-1.635z" fill="#fff"/><path fill-rule="evenodd" clip-rule="evenodd" d="M33.518 3.518v10.554h10.554L33.518 3.518zM30 0v17.59h17.59V0H30z" fill="#FF6E30"/><path d="M1.543 29.66c-.653-.6-.98-1.337-.98-2.21s.327-1.607.98-2.2c.653-.6 1.51-.9 2.57-.9v-.8h.9v.8c1.06 0 1.917.3 2.57.9.653.593.98 1.327.98 2.2 0 .873-.327 1.61-.98 2.21-.653.593-1.51.89-2.57.89v.8h-.9v-.8c-1.06 0-1.917-.297-2.57-.89zm3.47-4.51v4.6c.807 0 1.45-.217 1.93-.65.48-.433.72-.983.72-1.65 0-.667-.24-1.217-.72-1.65-.48-.433-1.123-.65-1.93-.65zm-2.83.65c-.48.433-.72.983-.72 1.65 0 .667.24 1.217.72 1.65.48.433 1.123.65 1.93.65v-4.6c-.807 0-1.45.217-1.93.65zm7.919 4.56c-.493-.493-.74-1.113-.74-1.86 0-.747.247-1.367.74-1.86.493-.493 1.113-.74 1.86-.74.747 0 1.367.247 1.86.74.493.493.74 1.113.74 1.86 0 .747-.247 1.367-.74 1.86-.493.493-1.113.74-1.86.74-.747 0-1.367-.247-1.86-.74zm.57-3.19c-.34.347-.51.79-.51 1.33s.17.983.51 1.33c.34.347.77.52 1.29.52s.95-.173 1.29-.52c.34-.347.51-.79.51-1.33s-.17-.983-.51-1.33c-.34-.347-.77-.52-1.29-.52s-.95.173-1.29.52zm4.336-.42V26h4.3v.75h-1.75V31h-.8v-4.25h-1.75zm5.494 3.61c-.493-.493-.74-1.113-.74-1.86 0-.747.247-1.367.74-1.86.494-.493 1.114-.74 1.86-.74.747 0 1.367.247 1.86.74.494.493.74 1.113.74 1.86 0 .747-.246 1.367-.74 1.86-.493.493-1.113.74-1.86.74-.746 0-1.366-.247-1.86-.74zm.57-3.19c-.34.347-.51.79-.51 1.33s.17.983.51 1.33c.34.347.77.52 1.29.52s.95-.173 1.29-.52c.34-.347.51-.79.51-1.33s-.17-.983-.51-1.33c-.34-.347-.77-.52-1.29-.52s-.95.173-1.29.52zm5.406 3.19c-.48-.493-.72-1.113-.72-1.86 0-.747.24-1.367.72-1.86.48-.493 1.074-.74 1.78-.74.82 0 1.47.293 1.95.88.207.26.357.55.45.87h-.8a1.588 1.588 0 00-.33-.5c-.32-.333-.743-.5-1.27-.5-.486 0-.893.173-1.22.52-.32.347-.48.79-.48 1.33s.167.983.5 1.33c.334.347.734.52 1.2.52.547 0 .984-.183 1.31-.55.147-.153.26-.337.34-.55h.8c-.086.34-.24.65-.46.93-.506.613-1.17.92-1.99.92-.706 0-1.3-.247-1.78-.74zm4.585-3.61V26h4.3v.75h-1.75V31h-.8v-4.25h-1.75zm4.554-.75h.85l1.1 4.25h.75l1.3-4.25h.85l-2.1 6.9h-.85l.6-1.9h-1.15l-1.35-5zm4.704 6.15v-1.9h.55L42.02 26h2.1l1.15 4.25h.55v1.9h-.8V31h-3.9v1.15h-.8zm1.35-1.9h2.8l-.95-3.5h-.9l-.95 3.5zm4.895.75v-5h.8v3.75l-.01.1h.02l2.69-3.85h.9v5h-.8v-3.75l.01-.1h-.02L47.466 31h-.9zm5.601 0l1-1.8a2.097 2.097 0 01-.5-.32c-.333-.307-.5-.7-.5-1.18 0-.487.177-.89.53-1.21.353-.327.823-.49 1.41-.49h2.26v5h-.8v-1.6h-1.6l-.88 1.6h-.92zm1.09-3.99c-.193.173-.29.403-.29.69 0 .287.097.517.29.69.2.173.487.26.86.26h1.45v-1.9h-1.45c-.373 0-.66.087-.86.26zM60.67 31v-7h.9v3.05h3.75V24h.9v7h-.9v-3.1h-3.75V31h-.9zm7.059-6.11a.53.53 0 01-.16-.39.53.53 0 01.16-.39.53.53 0 01.39-.16.53.53 0 01.39.16c.106.107.16.237.16.39a.531.531 0 01-.16.39.53.53 0 01-.39.16.53.53 0 01-.39-.16zm-.01 6.11v-5h.8v5h-.8zm2.597-.64c-.467-.5-.7-1.12-.7-1.86s.233-1.357.7-1.85c.466-.5 1.033-.75 1.7-.75.42 0 .776.08 1.07.24.293.16.503.33.63.51l.09.15h.01V26h.8v6.9h-4.3v-.75h3.5V30.2h-.01l-.09.14c-.12.18-.327.353-.62.52-.294.16-.654.24-1.08.24a2.253 2.253 0 01-1.7-.74zm.58-3.19c-.32.347-.48.79-.48 1.33s.16.983.48 1.33c.326.347.733.52 1.22.52s.89-.173 1.21-.52c.327-.347.49-.79.49-1.33s-.163-.983-.49-1.33a1.576 1.576 0 00-1.21-.52c-.487 0-.894.173-1.22.52zM76.019 31v-7h.8v2.75h.01c.1-.16.23-.3.39-.42.367-.287.8-.43 1.3-.43.607 0 1.09.193 1.45.58.367.38.55.903.55 1.57V31h-.8v-2.9c0-.48-.12-.84-.36-1.08-.24-.247-.57-.37-.99-.37-.46 0-.833.153-1.12.46-.286.3-.43.697-.43 1.19V31h-.8zm8.604 1.9V26h.8v.8h.01l.1-.15c.113-.173.317-.34.61-.5.293-.167.653-.25 1.08-.25.666 0 1.233.25 1.7.75.466.493.7 1.11.7 1.85s-.234 1.36-.7 1.86a2.253 2.253 0 01-1.7.74c-.427 0-.79-.08-1.09-.24-.293-.167-.493-.34-.6-.52l-.1-.14h-.01v2.7h-.8zm1.28-5.73c-.32.347-.48.79-.48 1.33s.16.983.48 1.33c.326.347.733.52 1.22.52.486 0 .89-.173 1.21-.52.326-.347.49-.79.49-1.33s-.163-.983-.49-1.33a1.576 1.576 0 00-1.21-.52c-.487 0-.894.173-1.22.52zm5.223 3.19c-.466-.5-.7-1.12-.7-1.86s.234-1.357.7-1.85c.467-.5 1.034-.75 1.7-.75.42 0 .774.08 1.06.24.294.16.507.333.64.52l.09.15h.01V26h.8v5h-.8v-.8h-.01l-.09.14c-.12.18-.326.353-.62.52-.293.16-.653.24-1.08.24a2.253 2.253 0 01-1.7-.74zm.58-3.19c-.32.347-.48.79-.48 1.33s.16.983.48 1.33c.327.347.734.52 1.22.52.487 0 .89-.173 1.21-.52.327-.347.49-.79.49-1.33s-.163-.983-.49-1.33a1.576 1.576 0 00-1.21-.52c-.486 0-.893.173-1.22.52zm4.774 2.28h.85c.073.18.17.33.29.45.3.3.686.45 1.16.45.427 0 .74-.07.94-.21.207-.14.31-.32.31-.54a.424.424 0 00-.13-.31c-.08-.087-.214-.163-.4-.23a4.42 4.42 0 00-.5-.15 8.019 8.019 0 00-.62-.14c-1.1-.227-1.65-.717-1.65-1.47 0-.393.166-.723.5-.99.333-.273.8-.41 1.4-.41.746 0 1.337.25 1.77.75.173.227.3.477.38.75h-.85a1.247 1.247 0 00-.26-.37c-.254-.253-.6-.38-1.04-.38-.353 0-.627.067-.82.2-.187.133-.28.283-.28.45 0 .12.04.223.12.31.087.087.223.163.41.23.186.067.35.12.49.16.147.033.356.077.63.13 1.1.227 1.65.717 1.65 1.47 0 .427-.18.783-.54 1.07-.36.287-.864.43-1.51.43-.814 0-1.44-.273-1.88-.82a2.498 2.498 0 01-.42-.83zm5.098 0h.85c.073.18.17.33.29.45.3.3.686.45 1.16.45.426 0 .74-.07.94-.21.206-.14.31-.32.31-.54a.426.426 0 00-.13-.31c-.08-.087-.214-.163-.4-.23a4.476 4.476 0 00-.5-.15 8.052 8.052 0 00-.62-.14c-1.1-.227-1.65-.717-1.65-1.47 0-.393.166-.723.5-.99.333-.273.8-.41 1.4-.41.746 0 1.336.25 1.77.75.173.227.3.477.38.75h-.85a1.252 1.252 0 00-.26-.37c-.254-.253-.6-.38-1.04-.38-.354 0-.627.067-.82.2-.187.133-.28.283-.28.45 0 .12.04.223.12.31.086.087.223.163.41.23.186.067.35.12.49.16.146.033.356.077.63.13 1.1.227 1.65.717 1.65 1.47 0 .427-.18.783-.54 1.07-.36.287-.864.43-1.51.43-.814 0-1.44-.273-1.88-.82a2.487 2.487 0 01-.42-.83zm5.857-1.2a2.52 2.52 0 01-.76-1.85c0-.727.254-1.34.76-1.84.514-.507 1.144-.76 1.89-.76.747 0 1.374.253 1.88.76.514.5.77 1.113.77 1.84 0 .727-.256 1.343-.77 1.85-.506.5-1.133.75-1.88.75-.746 0-1.376-.25-1.89-.75zm.46-3.28c-.38.38-.57.857-.57 1.43s.19 1.05.57 1.43c.38.38.857.57 1.43.57.574 0 1.05-.19 1.43-.57.38-.38.57-.857.57-1.43s-.19-1.05-.57-1.43c-.38-.38-.856-.57-1.43-.57-.573 0-1.05.19-1.43.57zm.43 2.58V25.1h1.15c.7 0 1.05.3 1.05.9 0 .22-.083.413-.25.58a.782.782 0 01-.25.17l.55.8h-.7l-.5-.7h-.4v.7h-.65zm.65-1.25h.5c.274 0 .41-.1.41-.3 0-.2-.136-.3-.41-.3h-.5v.6zm6.449 4.7v-.85l2.3-1.7c.633-.473 1.083-.88 1.35-1.22.267-.34.4-.733.4-1.18 0-.407-.14-.74-.42-1-.273-.267-.633-.4-1.08-.4-.573 0-1 .233-1.28.7a2 2 0 00-.27.7h-.95c.06-.413.19-.787.39-1.12.473-.753 1.177-1.13 2.11-1.13.693 0 1.267.217 1.72.65.453.433.68.967.68 1.6 0 .607-.173 1.14-.52 1.6-.34.453-.85.92-1.53 1.4l-1.45 1.03-.1.06v.02l.09-.01h3.51V31h-4.95zm6.873-.83c-.613-.687-.92-1.577-.92-2.67s.307-1.983.92-2.67c.613-.687 1.357-1.03 2.23-1.03s1.617.343 2.23 1.03.92 1.577.92 2.67-.307 1.983-.92 2.67c-.613.687-1.357 1.03-2.23 1.03s-1.617-.343-2.23-1.03zm.61-4.76c-.42.5-.63 1.197-.63 2.09 0 .893.21 1.593.63 2.1.427.5.967.75 1.62.75.653 0 1.19-.25 1.61-.75.427-.507.64-1.207.64-2.1s-.213-1.59-.64-2.09a2 2 0 00-1.61-.76c-.653 0-1.193.253-1.62.76zm5.572.64v-1l1.35-1.05h.8v7h-.9v-5.9l-1.25.95zm3.404 3.05c0-.613.24-1.1.72-1.46.22-.16.463-.273.73-.34v-.05a1.885 1.885 0 01-.58-.32c-.38-.313-.57-.723-.57-1.23 0-.527.22-.973.66-1.34.446-.373 1.043-.56 1.79-.56.746 0 1.34.187 1.78.56.446.367.67.813.67 1.34 0 .5-.194.91-.58 1.23-.18.147-.37.253-.57.32v.05c.253.067.493.18.72.34.486.367.73.853.73 1.46 0 .573-.25 1.067-.75 1.48-.494.413-1.16.62-2 .62-.84 0-1.51-.207-2.01-.62-.494-.413-.74-.907-.74-1.48zm1.2-3.3c0 .293.14.55.42.77.28.22.656.33 1.13.33.473 0 .85-.11 1.13-.33.28-.22.42-.477.42-.77 0-.34-.134-.617-.4-.83-.26-.213-.644-.32-1.15-.32-.507 0-.894.107-1.16.32-.26.213-.39.49-.39.83zm.18 2.33c-.32.247-.48.553-.48.92s.16.677.48.93c.32.247.776.37 1.37.37.593 0 1.05-.123 1.37-.37.32-.253.48-.563.48-.93 0-.367-.16-.673-.48-.92-.32-.253-.777-.38-1.37-.38-.594 0-1.05.127-1.37.38zm5.166.57v-.75h5.6v.75h-5.6zm6.497 2.3v-.85l2.3-1.7c.633-.473 1.083-.88 1.35-1.22.267-.34.4-.733.4-1.18 0-.407-.14-.74-.42-1-.273-.267-.633-.4-1.08-.4-.573 0-1 .233-1.28.7a2 2 0 00-.27.7h-.95c.06-.413.19-.787.39-1.12.473-.753 1.177-1.13 2.11-1.13.693 0 1.267.217 1.72.65.453.433.68.967.68 1.6 0 .607-.173 1.14-.52 1.6-.34.453-.85.92-1.53 1.4l-1.45 1.03-.1.06v.02l.09-.01h3.51V31h-4.95zm6.873-.83c-.613-.687-.92-1.577-.92-2.67s.307-1.983.92-2.67c.613-.687 1.357-1.03 2.23-1.03s1.617.343 2.23 1.03.92 1.577.92 2.67-.307 1.983-.92 2.67c-.613.687-1.357 1.03-2.23 1.03s-1.617-.343-2.23-1.03zm.61-4.76c-.42.5-.63 1.197-.63 2.09 0 .893.21 1.593.63 2.1.427.5.967.75 1.62.75.653 0 1.19-.25 1.61-.75.427-.507.64-1.207.64-2.1s-.213-1.59-.64-2.09a2 2 0 00-1.61-.76c-.653 0-1.193.253-1.62.76zm5.622 5.59v-.85l2.3-1.7c.634-.473 1.084-.88 1.35-1.22.267-.34.4-.733.4-1.18 0-.407-.14-.74-.42-1-.273-.267-.633-.4-1.08-.4-.573 0-1 .233-1.28.7a2 2 0 00-.27.7h-.95c.06-.413.19-.787.39-1.12.474-.753 1.177-1.13 2.11-1.13.694 0 1.267.217 1.72.65.454.433.68.967.68 1.6 0 .607-.173 1.14-.52 1.6-.34.453-.85.92-1.53 1.4l-1.45 1.03-.1.06v.02l.09-.01h3.51V31h-4.95zm6.874-.83c-.614-.687-.92-1.577-.92-2.67s.306-1.983.92-2.67c.613-.687 1.356-1.03 2.23-1.03.873 0 1.616.343 2.23 1.03.613.687.92 1.577.92 2.67s-.307 1.983-.92 2.67c-.614.687-1.357 1.03-2.23 1.03-.874 0-1.617-.343-2.23-1.03zm.61-4.76c-.42.5-.63 1.197-.63 2.09 0 .893.21 1.593.63 2.1.426.5.966.75 1.62.75.653 0 1.19-.25 1.61-.75.426-.507.64-1.207.64-2.1s-.214-1.59-.64-2.09a2 2 0 00-1.61-.76c-.654 0-1.194.253-1.62.76z" fill="#E9E9E9"/></svg>