<svg width="263" height="55" fill="none" xmlns="http://www.w3.org/2000/svg"><path d="M43 25V4h5.55v7.8h8.1V4h5.55v21h-5.55v-8.1h-8.1V25H43zM65.486 5.2c0-.72.27-1.32.81-1.8.54-.5 1.22-.75 2.04-.75.82 0 1.5.25 2.04.75.54.48.81 1.08.81 1.8 0 .7-.27 1.3-.81 1.8s-1.22.75-2.04.75c-.82 0-1.5-.25-2.04-.75s-.81-1.1-.81-1.8zm.3 19.8V9.4h5.1V25h-5.1zM75.454 22.63c-1.34-1.48-2.01-3.39-2.01-5.73 0-2.34.67-4.25 2.01-5.73 1.34-1.48 2.97-2.22 4.89-2.22 1.38 0 2.57.4 3.57 1.2.46.36.82.76 1.08 1.2h.3V9.4h5.1v21.3h-14.85v-4.05h9.75V22.6h-.3c-.28.44-.64.82-1.08 1.14-.98.74-2.17 1.11-3.57 1.11-1.92 0-3.55-.74-4.89-2.22zm4.14-8.37c-.6.64-.9 1.52-.9 2.64s.3 2 .9 2.64c.6.64 1.4.96 2.4.96s1.8-.32 2.4-.96c.6-.64.9-1.52.9-2.64s-.3-2-.9-2.64c-.6-.64-1.4-.96-2.4-.96s-1.8.32-2.4.96zM93.38 25V4h5.1v7.5h.3c.28-.48.64-.9 1.08-1.26 1.02-.86 2.21-1.29 3.57-1.29 1.84 0 3.27.56 4.29 1.68 1.04 1.1 1.56 2.69 1.56 4.77V25h-5.1v-8.85c0-.9-.24-1.6-.72-2.1s-1.14-.75-1.98-.75c-.86 0-1.58.32-2.16.96-.56.62-.84 1.45-.84 2.49V25h-5.1zM120.538 30.7V9.4h5.1v2.1h.3c.28-.46.66-.88 1.14-1.26 1.1-.86 2.27-1.29 3.51-1.29 1.92 0 3.55.76 4.89 2.28 1.34 1.5 2.01 3.49 2.01 5.97 0 2.48-.67 4.48-2.01 6-1.34 1.5-2.97 2.25-4.89 2.25-1.26 0-2.43-.42-3.51-1.26a4.61 4.61 0 01-1.14-1.29h-.3v7.8h-5.1zm6-16.38c-.6.68-.9 1.64-.9 2.88s.3 2.2.9 2.88c.6.68 1.4 1.02 2.4 1.02s1.8-.34 2.4-1.02c.6-.68.9-1.64.9-2.88s-.3-2.2-.9-2.88c-.6-.68-1.4-1.02-2.4-1.02s-1.8.34-2.4 1.02zM141.284 23.2c-1.34-1.52-2.01-3.52-2.01-6s.67-4.47 2.01-5.97c1.34-1.52 2.97-2.28 4.89-2.28 1.24 0 2.41.43 3.51 1.29.46.38.84.8 1.14 1.26h.3V9.4h5.1V25h-5.1v-2.1h-.3c-.28.48-.66.91-1.14 1.29-1.08.84-2.25 1.26-3.51 1.26-1.92 0-3.55-.75-4.89-2.25zm4.14-8.88c-.6.68-.9 1.64-.9 2.88s.3 2.2.9 2.88c.6.68 1.4 1.02 2.4 1.02s1.8-.34 2.4-1.02c.6-.68.9-1.64.9-2.88s-.3-2.2-.9-2.88c-.6-.68-1.4-1.02-2.4-1.02s-1.8.34-2.4 1.02zM158.31 19.9h5.1c.08.3.25.58.51.84.54.54 1.32.81 2.34.81 1.4 0 2.1-.35 2.1-1.05 0-.32-.2-.57-.6-.75-.4-.2-1-.4-1.8-.6-.66-.16-1.09-.26-1.29-.3-.2-.04-.62-.15-1.26-.33-.64-.2-1.1-.37-1.38-.51-.26-.16-.63-.38-1.11-.66-.46-.3-.8-.6-1.02-.9-.2-.32-.39-.71-.57-1.17-.18-.48-.27-.99-.27-1.53 0-1.32.59-2.45 1.77-3.39 1.18-.94 2.84-1.41 4.98-1.41 2.68 0 4.8.88 6.36 2.64a6.53 6.53 0 011.29 2.61h-4.95c-.12-.32-.26-.57-.42-.75-.46-.5-1.12-.75-1.98-.75-1.2 0-1.8.35-1.8 1.05 0 .34.2.6.6.78.4.18 1.01.35 1.83.51 2.06.48 3.45.9 4.17 1.26 1.8.88 2.7 2.23 2.7 4.05 0 1.44-.64 2.65-1.92 3.63-1.26.98-3.07 1.47-5.43 1.47-2.9 0-5.11-.92-6.63-2.76a6.113 6.113 0 01-1.32-2.79zM174.951 19.9h5.1c.08.3.25.58.51.84.54.54 1.32.81 2.34.81 1.4 0 2.1-.35 2.1-1.05 0-.32-.2-.57-.6-.75-.4-.2-1-.4-1.8-.6-.66-.16-1.09-.26-1.29-.3-.2-.04-.62-.15-1.26-.33-.64-.2-1.1-.37-1.38-.51-.26-.16-.63-.38-1.11-.66-.46-.3-.8-.6-1.02-.9-.2-.32-.39-.71-.57-1.17-.18-.48-.27-.99-.27-1.53 0-1.32.59-2.45 1.77-3.39 1.18-.94 2.84-1.41 4.98-1.41 2.68 0 4.8.88 6.36 2.64a6.53 6.53 0 011.29 2.61h-4.95c-.12-.32-.26-.57-.42-.75-.46-.5-1.12-.75-1.98-.75-1.2 0-1.8.35-1.8 1.05 0 .34.2.6.6.78.4.18 1.01.35 1.83.51 2.06.48 3.45.9 4.17 1.26 1.8.88 2.7 2.23 2.7 4.05 0 1.44-.64 2.65-1.92 3.63-1.26.98-3.07 1.47-5.43 1.47-2.9 0-5.11-.92-6.63-2.76a6.113 6.113 0 01-1.32-2.79z" fill="#fff"/><path fill-rule="evenodd" clip-rule="evenodd" d="M6 6v18h18L6 6zM0 0v30h30V0H0z" fill="#FF6E30"/><path d="M1.932 48.124C1.017 47.284.56 46.253.56 45.03c0-1.223.457-2.25 1.372-3.08.915-.84 2.114-1.26 3.598-1.26v-1.12h1.26v1.12c1.484 0 2.683.42 3.598 1.26.915.83 1.372 1.857 1.372 3.08s-.457 2.254-1.372 3.094c-.915.83-2.114 1.246-3.598 1.246v1.12H5.53v-1.12c-1.484 0-2.683-.415-3.598-1.246zM6.79 41.81v6.44c1.13 0 2.03-.303 2.702-.91.672-.607 1.008-1.377 1.008-2.31s-.336-1.703-1.008-2.31c-.672-.607-1.573-.91-2.702-.91zm-3.962.91c-.672.607-1.008 1.377-1.008 2.31s.336 1.703 1.008 2.31c.672.607 1.573.91 2.702.91v-6.44c-1.13 0-2.03.303-2.702.91zm11.086 6.384c-.69-.69-1.036-1.559-1.036-2.604 0-1.045.346-1.913 1.036-2.604.691-.69 1.559-1.036 2.604-1.036 1.046 0 1.914.345 2.604 1.036.691.69 1.036 1.559 1.036 2.604 0 1.045-.345 1.913-1.036 2.604-.69.69-1.558 1.036-2.604 1.036-1.045 0-1.913-.345-2.604-1.036zm.798-4.466c-.476.485-.714 1.106-.714 1.862s.238 1.377.714 1.862c.476.485 1.078.728 1.806.728s1.33-.243 1.806-.728.714-1.106.714-1.862-.238-1.377-.714-1.862c-.476-.485-1.078-.728-1.806-.728s-1.33.243-1.806.728zm6.07-.588V43h6.02v1.05h-2.45V50h-1.12v-5.95h-2.45zm7.693 5.054c-.69-.69-1.036-1.559-1.036-2.604 0-1.045.345-1.913 1.036-2.604.69-.69 1.559-1.036 2.604-1.036 1.045 0 1.913.345 2.604 1.036.69.69 1.036 1.559 1.036 2.604 0 1.045-.345 1.913-1.036 2.604-.69.69-1.559 1.036-2.604 1.036-1.045 0-1.913-.345-2.604-1.036zm.798-4.466c-.476.485-.714 1.106-.714 1.862s.238 1.377.714 1.862c.476.485 1.078.728 1.806.728s1.33-.243 1.806-.728.714-1.106.714-1.862-.238-1.377-.714-1.862c-.476-.485-1.078-.728-1.806-.728s-1.33.243-1.806.728zm7.568 4.466c-.672-.69-1.008-1.559-1.008-2.604 0-1.045.336-1.913 1.008-2.604.672-.69 1.503-1.036 2.492-1.036 1.148 0 2.058.41 2.73 1.232.29.364.5.77.63 1.218h-1.12a2.224 2.224 0 00-.462-.7c-.448-.467-1.04-.7-1.778-.7-.68 0-1.25.243-1.708.728-.448.485-.672 1.106-.672 1.862s.234 1.377.7 1.862c.467.485 1.027.728 1.68.728.766 0 1.377-.257 1.834-.77.206-.215.364-.471.476-.77h1.12c-.12.476-.336.91-.644 1.302-.709.859-1.638 1.288-2.786 1.288-.989 0-1.82-.345-2.492-1.036zm6.419-5.054V43h6.02v1.05h-2.45V50h-1.12v-5.95h-2.45zM49.636 43h1.19l1.54 5.95h1.05l1.82-5.95h1.19l-2.94 9.66h-1.19l.84-2.66h-1.61l-1.89-7zm6.584 8.61v-2.66h.77L58.6 43h2.94l1.61 5.95h.77v2.66H62.8V50h-5.46v1.61h-1.12zm1.89-2.66h3.92l-1.33-4.9h-1.26l-1.33 4.9zM64.964 50v-7h1.12v5.25l-.014.14h.028L69.864 43h1.26v7h-1.12v-5.25l.014-.14h-.028L66.224 50h-1.26zm7.841 0l1.4-2.52a2.937 2.937 0 01-.7-.448c-.466-.43-.7-.98-.7-1.652 0-.681.248-1.246.742-1.694.495-.457 1.153-.686 1.975-.686h3.163v7h-1.12v-2.24h-2.24L74.095 50h-1.288zm1.526-5.586c-.27.243-.406.565-.406.966s.136.723.407.966c.28.243.68.364 1.204.364h2.03v-2.66h-2.03c-.523 0-.924.121-1.204.364zM84.71 50v-9.8h1.26v4.27h5.25V40.2h1.26V50h-1.26v-4.34h-5.25V50h-1.26zm9.882-8.554a.743.743 0 01-.224-.546c0-.215.074-.397.224-.546a.743.743 0 01.546-.224c.214 0 .396.075.546.224.149.15.224.331.224.546a.743.743 0 01-.224.546.743.743 0 01-.546.224.743.743 0 01-.546-.224zM94.578 50v-7h1.12v7h-1.12zm3.636-.896c-.653-.7-.98-1.568-.98-2.604s.327-1.9.98-2.59c.653-.7 1.447-1.05 2.38-1.05.588 0 1.087.112 1.498.336.41.224.704.462.882.714l.126.21h.014V43h1.12v9.66h-6.02v-1.05h4.9v-2.73h-.014l-.126.196c-.168.252-.458.495-.868.728-.411.224-.915.336-1.512.336-.933 0-1.727-.345-2.38-1.036zm.812-4.466c-.448.485-.672 1.106-.672 1.862s.224 1.377.672 1.862c.457.485 1.026.728 1.708.728.681 0 1.246-.243 1.694-.728.457-.485.686-1.106.686-1.862s-.229-1.377-.686-1.862c-.448-.485-1.013-.728-1.694-.728-.682 0-1.25.243-1.708.728zM106.199 50v-9.8h1.12v3.85h.014c.14-.224.322-.42.546-.588.513-.401 1.12-.602 1.82-.602.849 0 1.526.27 2.03.812.513.532.77 1.265.77 2.198V50h-1.12v-4.06c0-.672-.168-1.176-.504-1.512-.336-.345-.798-.518-1.386-.518-.644 0-1.167.215-1.568.644-.402.42-.602.975-.602 1.666V50h-1.12zm12.045 2.66V43h1.12v1.12h.014l.14-.21c.158-.243.443-.476.854-.7.41-.233.914-.35 1.512-.35.933 0 1.726.35 2.38 1.05.653.69.98 1.554.98 2.59 0 1.036-.327 1.904-.98 2.604-.654.69-1.447 1.036-2.38 1.036-.598 0-1.106-.112-1.526-.336-.411-.233-.691-.476-.84-.728l-.14-.196h-.014v3.78h-1.12zm1.792-8.022c-.448.485-.672 1.106-.672 1.862s.224 1.377.672 1.862c.457.485 1.026.728 1.708.728.681 0 1.246-.243 1.694-.728.457-.485.686-1.106.686-1.862s-.229-1.377-.686-1.862c-.448-.485-1.013-.728-1.694-.728-.682 0-1.251.243-1.708.728zm7.313 4.466c-.654-.7-.98-1.568-.98-2.604s.326-1.9.98-2.59c.653-.7 1.446-1.05 2.38-1.05.588 0 1.082.112 1.484.336.41.224.709.467.896.728l.126.21h.014V43h1.12v7h-1.12v-1.12h-.014l-.126.196c-.168.252-.458.495-.868.728-.411.224-.915.336-1.512.336-.934 0-1.727-.345-2.38-1.036zm.812-4.466c-.448.485-.672 1.106-.672 1.862s.224 1.377.672 1.862c.457.485 1.026.728 1.708.728.681 0 1.246-.243 1.694-.728.457-.485.686-1.106.686-1.862s-.229-1.377-.686-1.862c-.448-.485-1.013-.728-1.694-.728-.682 0-1.251.243-1.708.728zm6.683 3.192h1.19c.102.252.238.462.406.63.42.42.961.63 1.624.63.597 0 1.036-.098 1.316-.294.289-.196.434-.448.434-.756a.594.594 0 00-.182-.434c-.112-.121-.299-.229-.56-.322a6.275 6.275 0 00-.7-.21 11.334 11.334 0 00-.868-.196c-1.54-.317-2.31-1.003-2.31-2.058 0-.55.233-1.013.7-1.386.466-.383 1.12-.574 1.96-.574 1.045 0 1.871.35 2.478 1.05a3.2 3.2 0 01.532 1.05h-1.19a1.757 1.757 0 00-.364-.518c-.355-.355-.84-.532-1.456-.532-.495 0-.878.093-1.148.28-.262.187-.392.397-.392.63 0 .168.056.313.168.434.121.121.312.229.574.322.261.093.49.168.686.224.205.047.499.107.882.182 1.54.317 2.31 1.003 2.31 2.058 0 .597-.252 1.097-.756 1.498s-1.209.602-2.114.602c-1.139 0-2.016-.383-2.632-1.148a3.474 3.474 0 01-.588-1.162zm7.136 0h1.19c.103.252.238.462.406.63.42.42.962.63 1.624.63.598 0 1.036-.098 1.316-.294.29-.196.434-.448.434-.756a.59.59 0 00-.182-.434c-.112-.121-.298-.229-.56-.322a6.152 6.152 0 00-.7-.21 11.222 11.222 0 00-.868-.196c-1.54-.317-2.31-1.003-2.31-2.058 0-.55.234-1.013.7-1.386.467-.383 1.12-.574 1.96-.574 1.046 0 1.872.35 2.478 1.05.243.317.42.667.532 1.05h-1.19a1.738 1.738 0 00-.364-.518c-.354-.355-.84-.532-1.456-.532-.494 0-.877.093-1.148.28-.261.187-.392.397-.392.63 0 .168.056.313.168.434.122.121.313.229.574.322.262.093.49.168.686.224.206.047.5.107.882.182 1.54.317 2.31 1.003 2.31 2.058 0 .597-.252 1.097-.756 1.498s-1.208.602-2.114.602c-1.138 0-2.016-.383-2.632-1.148a3.511 3.511 0 01-.588-1.162zm8.201-1.68c-.709-.71-1.064-1.573-1.064-2.59s.355-1.876 1.064-2.576c.719-.71 1.601-1.064 2.646-1.064s1.923.355 2.632 1.064c.719.7 1.078 1.559 1.078 2.576 0 1.017-.359 1.88-1.078 2.59-.709.7-1.587 1.05-2.632 1.05-1.045 0-1.927-.35-2.646-1.05zm.644-4.592c-.532.532-.798 1.2-.798 2.002 0 .803.266 1.47.798 2.002.532.532 1.199.798 2.002.798.803 0 1.47-.266 2.002-.798.532-.532.798-1.2.798-2.002 0-.803-.266-1.47-.798-2.002-.532-.532-1.199-.798-2.002-.798-.803 0-1.47.266-2.002.798zm.602 3.612v-3.43h1.61c.98 0 1.47.42 1.47 1.26 0 .308-.117.579-.35.812a1.109 1.109 0 01-.35.238l.77 1.12h-.98l-.7-.98h-.56v.98h-.91zm.91-1.75h.7c.383 0 .574-.14.574-.42 0-.28-.191-.42-.574-.42h-.7v.84zm9.028 6.58v-1.19l3.22-2.38c.887-.663 1.517-1.232 1.89-1.708.374-.476.56-1.027.56-1.652 0-.57-.196-1.036-.588-1.4-.382-.373-.886-.56-1.512-.56-.802 0-1.4.327-1.792.98a2.808 2.808 0 00-.378.98h-1.33a4.18 4.18 0 01.546-1.568c.663-1.055 1.648-1.582 2.954-1.582.971 0 1.774.303 2.408.91.635.607.952 1.353.952 2.24 0 .85-.242 1.596-.728 2.24-.476.635-1.19 1.288-2.142 1.96l-2.03 1.442-.14.084v.028l.126-.014h4.914V50h-6.93zm9.623-1.162c-.859-.961-1.288-2.207-1.288-3.738 0-1.53.429-2.777 1.288-3.738.858-.961 1.899-1.442 3.122-1.442 1.222 0 2.263.48 3.122 1.442.858.961 1.288 2.207 1.288 3.738 0 1.53-.43 2.777-1.288 3.738-.859.961-1.9 1.442-3.122 1.442-1.223 0-2.264-.48-3.122-1.442zm.854-6.664c-.588.7-.882 1.675-.882 2.926 0 1.25.294 2.23.882 2.94.597.7 1.353 1.05 2.268 1.05.914 0 1.666-.35 2.254-1.05.597-.71.896-1.69.896-2.94s-.299-2.226-.896-2.926c-.588-.71-1.34-1.064-2.254-1.064-.915 0-1.671.355-2.268 1.064zm7.801.896v-1.4l1.89-1.47h1.12V50h-1.26v-8.26l-1.75 1.33zm4.764 4.27c0-.859.336-1.54 1.008-2.044a2.93 2.93 0 011.022-.476v-.07a2.668 2.668 0 01-.812-.448c-.532-.439-.798-1.013-.798-1.722 0-.737.308-1.363.924-1.876.626-.523 1.461-.784 2.506-.784 1.046 0 1.876.261 2.492.784.626.513.938 1.139.938 1.876 0 .7-.27 1.274-.812 1.722a2.526 2.526 0 01-.798.448v.07c.355.093.691.252 1.008.476.682.513 1.022 1.195 1.022 2.044 0 .803-.35 1.493-1.05 2.072-.69.579-1.624.868-2.8.868-1.176 0-2.114-.29-2.814-.868-.69-.579-1.036-1.27-1.036-2.072zm1.68-4.62c0 .41.196.77.588 1.078.392.308.92.462 1.582.462.663 0 1.19-.154 1.582-.462.392-.308.588-.667.588-1.078 0-.476-.186-.863-.56-1.162-.364-.299-.9-.448-1.61-.448-.709 0-1.25.15-1.624.448a1.433 1.433 0 00-.546 1.162zm.252 3.262c-.448.345-.672.775-.672 1.288s.224.947.672 1.302c.448.345 1.088.518 1.918.518.831 0 1.47-.173 1.918-.518.448-.355.672-.789.672-1.302s-.224-.943-.672-1.288c-.448-.355-1.087-.532-1.918-.532-.83 0-1.47.177-1.918.532zm7.233.798v-1.05h7.84v1.05h-7.84zm9.096 3.22v-1.19l3.22-2.38c.887-.663 1.517-1.232 1.89-1.708s.56-1.027.56-1.652c0-.57-.196-1.036-.588-1.4-.383-.373-.887-.56-1.512-.56-.803 0-1.4.327-1.792.98a2.77 2.77 0 00-.378.98h-1.33a4.18 4.18 0 01.546-1.568c.663-1.055 1.647-1.582 2.954-1.582.971 0 1.773.303 2.408.91s.952 1.353.952 2.24c0 .85-.243 1.596-.728 2.24-.476.635-1.19 1.288-2.142 1.96l-2.03 1.442-.14.084v.028l.126-.014h4.914V50h-6.93zm9.622-1.162c-.858-.961-1.288-2.207-1.288-3.738 0-1.53.43-2.777 1.288-3.738.859-.961 1.9-1.442 3.122-1.442 1.223 0 2.264.48 3.122 1.442.859.961 1.288 2.207 1.288 3.738 0 1.53-.429 2.777-1.288 3.738-.858.961-1.899 1.442-3.122 1.442-1.222 0-2.263-.48-3.122-1.442zm.854-6.664c-.588.7-.882 1.675-.882 2.926 0 1.25.294 2.23.882 2.94.598.7 1.354 1.05 2.268 1.05.915 0 1.666-.35 2.254-1.05.598-.71.896-1.69.896-2.94s-.298-2.226-.896-2.926c-.588-.71-1.339-1.064-2.254-1.064-.914 0-1.67.355-2.268 1.064zM221.016 50v-1.19l3.22-2.38c.886-.663 1.516-1.232 1.89-1.708.373-.476.56-1.027.56-1.652 0-.57-.196-1.036-.588-1.4-.383-.373-.887-.56-1.512-.56-.803 0-1.4.327-1.792.98a2.77 2.77 0 00-.378.98h-1.33a4.18 4.18 0 01.546-1.568c.662-1.055 1.647-1.582 2.954-1.582.97 0 1.773.303 2.408.91.634.607.952 1.353.952 2.24 0 .85-.243 1.596-.728 2.24-.476.635-1.19 1.288-2.142 1.96l-2.03 1.442-.14.084v.028l.126-.014h4.914V50h-6.93zm9.622-1.162c-.859-.961-1.288-2.207-1.288-3.738 0-1.53.429-2.777 1.288-3.738.859-.961 1.899-1.442 3.122-1.442 1.223 0 2.263.48 3.122 1.442.859.961 1.288 2.207 1.288 3.738 0 1.53-.429 2.777-1.288 3.738-.859.961-1.899 1.442-3.122 1.442-1.223 0-2.263-.48-3.122-1.442zm.854-6.664c-.588.7-.882 1.675-.882 2.926 0 1.25.294 2.23.882 2.94.597.7 1.353 1.05 2.268 1.05.915 0 1.666-.35 2.254-1.05.597-.71.896-1.69.896-2.94s-.299-2.226-.896-2.926c-.588-.71-1.339-1.064-2.254-1.064s-1.671.355-2.268 1.064z" fill="#E9E9E9"/></svg>